<svg width="160" height="182" viewBox="0 0 160 182" fill="none" xmlns="http://www.w3.org/2000/svg">
<path d="M78.4698 176.118C-12.6281 123.204 33.4508 71.7339 5.28713 22.1782C4.57086 20.9178 4.78553 19.3108 5.95006 18.4475C11.0934 14.6346 25.7205 5.57345 41.5 12C57.1597 18.3778 71.6844 9.50209 76.9312 5.64022C78.1512 4.7422 79.8583 4.73097 81.0887 5.61485C86.4452 9.46304 101.387 18.3918 117.5 12C133.706 5.57099 148.729 14.6415 154.004 18.4519C155.191 19.3094 155.419 20.9337 154.696 22.2072C126.567 71.7541 172.61 123.215 81.5302 176.118C80.6116 176.652 79.3884 176.652 78.4698 176.118Z" fill="#3052A8" stroke="#51AA2A" stroke-width="9"/>
<rect x="63" y="21.1609" width="37.3673" height="2.2022" rx="1.1011" fill="#68A840"/>
<path d="M79 47.125V23.9313C79 22.5506 80.1193 21.4313 81.5 21.4313C82.8807 21.4313 84 22.5506 84 23.9313V47.125H79Z" fill="#68A840"/>
<path d="M79 165.843C79 175.338 79 113.989 79 113.989H81L81 165.843C81 165.843 79 156.349 79 165.843Z" fill="#A5A5A5"/>
<path opacity="0.4" d="M66.9282 49.6872C66.9678 48.0308 68.3431 46.6881 70 46.6881H95.6173C97.2741 46.6881 98.5851 48.0308 98.5454 49.6872L96.9785 115.101H65.3612L66.9282 49.6872Z" fill="#C6E6ED"/>
<path opacity="0.4" d="M81.3328 134.296L66.2661 114.957L96.8665 114.59L81.3328 134.296Z" fill="white"/>
<path d="M79.3301 133.828L65.6382 115.263L66.1701 81.1769L97.286 81.8011L96.4462 115.355L81.2927 134.375L79.3301 133.828Z" fill="#51AA2A"/>
<path d="M65.6382 115.263L79.3301 133.828L81.2927 134.375L96.4462 115.355M65.6382 115.263L96.4462 115.355M65.6382 115.263L97.286 81.8011M65.6382 115.263L66.1701 81.1769M96.4462 115.355L97.286 81.8011M96.4462 115.355L66.1701 81.1769M97.286 81.8011L66.1701 81.1769" stroke="#51AA2A"/>
<rect x="69.8791" y="50.9572" width="4" height="64" rx="2" transform="rotate(1.57286 69.8791 50.9572)" fill="white"/>
</svg>
