<svg width="160" height="182" viewBox="0 0 160 182" fill="none" xmlns="http://www.w3.org/2000/svg">
<path d="M78.4698 176.118C-12.6281 123.204 33.4508 71.7339 5.28713 22.1782C4.57086 20.9178 4.78553 19.3108 5.95006 18.4475C11.0934 14.6346 25.7205 5.57345 41.5 12C57.1597 18.3778 71.6844 9.50209 76.9312 5.64022C78.1512 4.7422 79.8583 4.73097 81.0887 5.61485C86.4452 9.46304 101.387 18.3918 117.5 12C133.706 5.57099 148.729 14.6415 154.004 18.4519C155.191 19.3094 155.419 20.9337 154.696 22.2072C126.567 71.7541 172.61 123.215 81.5302 176.118C80.6116 176.652 79.3884 176.652 78.4698 176.118Z" fill="#3052A8" stroke="#3052A8" stroke-width="9"/>
<path d="M78.4713 166.742C-2.62518 119.545 38.2205 73.6339 13.3285 29.4254C12.6172 28.1622 12.8334 26.5574 14.0038 25.702C18.783 22.2092 31.6799 14.4344 45.5765 20.0941C59.3532 25.705 72.1476 18.112 77.0237 14.5775C78.2503 13.6884 79.9695 13.6758 81.206 14.5509C86.1838 18.0738 99.3498 25.7191 113.529 20.0941C127.803 14.4319 141.049 22.2162 145.951 25.7068C147.143 26.5563 147.373 28.178 146.655 29.4545C121.797 73.6541 162.607 119.556 81.5287 166.742C80.6106 167.276 79.3894 167.276 78.4713 166.742Z" fill="#3052A8" stroke="#51AA2A" stroke-width="9"/>
<rect x="79.5326" y="26.8795" width="25.1835" height="1.48579" rx="0.742896" transform="rotate(25.8593 79.5326 26.8795)" fill="#68A840"/>
<path d="M81.5955 47.3463L88.4216 33.263C88.8274 32.4257 89.8352 32.0759 90.6726 32.4818V32.4818C91.5099 32.8876 91.8597 33.8954 91.4539 34.7328L84.6278 48.816L81.5955 47.3463Z" fill="#68A840"/>
<path d="M46.66 119.423C43.866 125.188 61.9193 87.9411 61.9193 87.9411L63.1322 88.529L47.8729 120.011C47.8729 120.011 49.4539 113.659 46.66 119.423Z" fill="#A5A5A5"/>
<path opacity="0.4" d="M73.0739 46.2211C73.832 44.7478 75.6552 44.1394 77.1461 44.862L90.9216 51.5389C92.4125 52.2616 93.0066 54.0417 92.2485 55.515L72.4951 93.9014L53.3205 84.6075L73.0739 46.2211Z" fill="#C6E6ED"/>
<path opacity="0.4" d="M57.3582 100.956L53.9117 84.7857L72.5777 93.558L57.3582 100.956Z" fill="white"/>
<path d="M56.2814 100.083L53.4408 84.7872L63.7941 64.2488L82.481 73.7742L72.0977 93.8987L57.3107 100.992L56.2814 100.083Z" fill="#51AA2A"/>
<path d="M53.4408 84.7872L56.2814 100.083L57.3107 100.992L72.0977 93.8987M53.4408 84.7872L72.0977 93.8987M53.4408 84.7872L82.481 73.7742M53.4408 84.7872L63.7941 64.2488M72.0977 93.8987L82.481 73.7742M72.0977 93.8987L63.7941 64.2488M82.481 73.7742L63.7941 64.2488" stroke="#51AA2A"/>
<rect width="2.69578" height="43.1799" rx="1.34789" transform="matrix(0.887543 0.460725 -0.460672 0.887571 74.9363 46.9918)" fill="white"/>
<rect x="105.462" y="56.3854" width="25.1835" height="1.48579" rx="0.742896" transform="rotate(25.8593 105.462 56.3854)" fill="#68A840"/>
<path d="M107.525 76.8521L114.351 62.7689C114.757 61.9316 115.765 61.5818 116.602 61.9876V61.9876C117.439 62.3935 117.789 63.4013 117.383 64.2387L110.557 78.3219L107.525 76.8521Z" fill="#68A840"/>
<path d="M72.5894 148.929C69.7954 154.694 87.8487 117.447 87.8487 117.447L89.0616 118.035L73.8023 149.517C73.8023 149.517 75.3833 143.165 72.5894 148.929Z" fill="#A5A5A5"/>
<path opacity="0.4" d="M99.0033 75.727C99.7614 74.2537 101.585 73.6453 103.076 74.3679L116.851 81.0448C118.342 81.7675 118.936 83.5476 118.178 85.0208L98.4245 123.407L79.2499 114.113L99.0033 75.727Z" fill="#C6E6ED"/>
<path opacity="0.4" d="M83.2876 130.462L79.8412 114.292L98.5071 123.064L83.2876 130.462Z" fill="white"/>
<path d="M82.2108 129.589L79.3702 114.293L89.7235 93.7546L108.41 103.28L98.0271 123.405L83.2401 130.498L82.2108 129.589Z" fill="#51AA2A"/>
<path d="M79.3702 114.293L82.2108 129.589L83.2401 130.498L98.0271 123.405M79.3702 114.293L98.0271 123.405M79.3702 114.293L108.41 103.28M79.3702 114.293L89.7235 93.7546M98.0271 123.405L108.41 103.28M98.0271 123.405L89.7235 93.7546M108.41 103.28L89.7235 93.7546" stroke="#51AA2A"/>
<rect width="2.69578" height="43.1799" rx="1.34789" transform="matrix(0.887543 0.460725 -0.460672 0.887571 100.866 76.4976)" fill="white"/>
</svg>
